<svg width="89" height="89" viewBox="0 0 89 89" fill="none" xmlns="http://www.w3.org/2000/svg">
<mask id="path-1-inside-1_82_87" fill="white">
<path d="M75.8367 31.4077C72.8242 24.1413 67.3854 18.1443 60.447 14.4384C53.5086 10.7325 45.4998 9.54711 37.7854 11.0841C30.0709 12.6211 23.1281 16.7855 18.1398 22.8676C13.1515 28.9497 10.4264 36.5733 10.4289 44.4394C10.4314 52.3055 13.1612 59.9273 18.1533 66.0063C23.1454 72.0853 30.0909 76.2453 37.8063 77.7775C45.5217 79.3097 53.5297 78.1193 60.4658 74.4091C67.4019 70.6988 72.8369 64.6984 75.8449 57.4301L44.4289 44.4287L75.8367 31.4077Z"/>
</mask>
<path d="M75.8367 31.4077C72.8242 24.1413 67.3854 18.1443 60.447 14.4384C53.5086 10.7325 45.4998 9.54711 37.7854 11.0841C30.0709 12.6211 23.1281 16.7855 18.1398 22.8676C13.1515 28.9497 10.4264 36.5733 10.4289 44.4394C10.4314 52.3055 13.1612 59.9273 18.1533 66.0063C23.1454 72.0853 30.0909 76.2453 37.8063 77.7775C45.5217 79.3097 53.5297 78.1193 60.4658 74.4091C67.4019 70.6988 72.8369 64.6984 75.8449 57.4301L44.4289 44.4287L75.8367 31.4077Z" fill="#FFF84B" stroke="#C27500" stroke-width="2" mask="url(#path-1-inside-1_82_87)"/>
<circle cx="38.429" cy="20.4287" r="6" fill="#FF0000"/>
<circle cx="38.429" cy="20.4287" r="6" fill="#FF0000"/>
<circle cx="34.929" cy="19.9287" r="0.5" fill="#3A2929"/>
<circle cx="37.929" cy="23.9287" r="0.5" fill="#3A2929"/>
<circle cx="38.929" cy="16.9287" r="0.5" fill="#3A2929"/>
<circle cx="40.929" cy="21.9287" r="0.5" fill="#3A2929"/>
<circle cx="38.929" cy="19.9287" r="0.5" fill="#3A2929"/>
<circle cx="42.929" cy="18.9287" r="0.5" fill="#3A2929"/>
<circle cx="35.929" cy="17.9287" r="0.5" fill="#3A2929"/>
<circle cx="59.429" cy="25.4287" r="6" fill="#FF0000"/>
<circle cx="59.429" cy="25.4287" r="6" fill="#FF0000"/>
<circle cx="55.929" cy="24.9287" r="0.5" fill="#3A2929"/>
<circle cx="58.929" cy="28.9287" r="0.5" fill="#3A2929"/>
<circle cx="59.929" cy="21.9287" r="0.5" fill="#3A2929"/>
<circle cx="61.929" cy="26.9287" r="0.5" fill="#3A2929"/>
<circle cx="59.929" cy="24.9287" r="0.5" fill="#3A2929"/>
<circle cx="63.929" cy="23.9287" r="0.5" fill="#3A2929"/>
<circle cx="56.929" cy="22.9287" r="0.5" fill="#3A2929"/>
<circle cx="25.429" cy="38.4287" r="6" fill="#FF0000"/>
<circle cx="25.429" cy="38.4287" r="6" fill="#FF0000"/>
<circle cx="21.929" cy="37.9287" r="0.5" fill="#3A2929"/>
<circle cx="24.929" cy="41.9287" r="0.5" fill="#3A2929"/>
<circle cx="25.929" cy="34.9287" r="0.5" fill="#3A2929"/>
<circle cx="27.929" cy="39.9287" r="0.5" fill="#3A2929"/>
<circle cx="25.929" cy="37.9287" r="0.5" fill="#3A2929"/>
<circle cx="29.929" cy="36.9287" r="0.5" fill="#3A2929"/>
<circle cx="22.929" cy="35.9287" r="0.5" fill="#3A2929"/>
<circle cx="32.429" cy="59.4287" r="6" fill="#FF0000"/>
<circle cx="32.429" cy="59.4287" r="6" fill="#FF0000"/>
<circle cx="28.929" cy="58.9287" r="0.5" fill="#3A2929"/>
<circle cx="31.929" cy="62.9287" r="0.5" fill="#3A2929"/>
<circle cx="32.929" cy="55.9287" r="0.5" fill="#3A2929"/>
<circle cx="34.929" cy="60.9287" r="0.5" fill="#3A2929"/>
<circle cx="32.929" cy="58.9287" r="0.5" fill="#3A2929"/>
<circle cx="36.929" cy="57.9287" r="0.5" fill="#3A2929"/>
<circle cx="29.929" cy="56.9287" r="0.5" fill="#3A2929"/>
<circle cx="54.429" cy="65.4287" r="6" fill="#FF0000"/>
<circle cx="54.429" cy="65.4287" r="6" fill="#FF0000"/>
<circle cx="50.929" cy="64.9287" r="0.5" fill="#3A2929"/>
<circle cx="53.929" cy="68.9287" r="0.5" fill="#3A2929"/>
<circle cx="54.929" cy="61.9287" r="0.5" fill="#3A2929"/>
<circle cx="56.929" cy="66.9287" r="0.5" fill="#3A2929"/>
<circle cx="54.929" cy="64.9287" r="0.5" fill="#3A2929"/>
<circle cx="58.929" cy="63.9287" r="0.5" fill="#3A2929"/>
<circle cx="51.929" cy="62.9287" r="0.5" fill="#3A2929"/>
<path d="M42.679 44.4287V78.427" stroke="#720505" stroke-width="0.5"/>
<line x1="42.4765" y1="44.6742" x2="11.4765" y2="50.6742" stroke="#5F0606" stroke-width="0.5"/>
<path d="M42.2234 44.5708L23.929 17.4287" stroke="#5F0606" stroke-width="0.5"/>
<path d="M42.1925 44.3477L53.429 11.9287" stroke="#5F0606" stroke-width="0.5"/>
<rect x="41.429" y="43.4287" width="2" height="2" rx="0.5" fill="#5C0000"/>
<path d="M75.8367 31.4077C72.8242 24.1413 67.3854 18.1443 60.447 14.4384C53.5086 10.7325 45.4998 9.54711 37.7854 11.0841C30.0709 12.6211 23.1281 16.7855 18.1398 22.8676C13.1515 28.9497 10.4264 36.5733 10.4289 44.4394C10.4314 52.3055 13.1612 59.9273 18.1533 66.0063C23.1454 72.0853 30.0909 76.2453 37.8063 77.7775C45.5217 79.3097 53.5297 78.1193 60.4658 74.4091C67.4019 70.6988 72.8369 64.6984 75.8449 57.4301L44.4289 44.4287L75.8367 31.4077Z" fill="#F03D3D" fill-opacity="0.27"/>
<path d="M42.679 44.4287V78.427" stroke="#720505" stroke-width="0.5"/>
<line x1="42.4765" y1="44.6742" x2="11.4765" y2="50.6742" stroke="#5F0606" stroke-width="0.5"/>
<path d="M42.2234 44.5708L23.929 17.4287" stroke="#5F0606" stroke-width="0.5"/>
<path d="M42.1925 44.3477L53.429 11.9287" stroke="#5F0606" stroke-width="0.5"/>
<rect x="41.429" y="43.4287" width="2" height="2" rx="0.5" fill="#5C0000"/>
</svg>
